<svg width="56" height="41" viewBox="0 0 56 41" fill="none" xmlns="http://www.w3.org/2000/svg">
<path d="M30.157 10.8814C32.6453 11.3243 33.3891 11.9204 35.4289 13.479C40.4383 17.2962 45.0047 15.847 45.5898 15.6665C48.8055 14.7204 42.9594 14.7204 42.0406 14.3649C34.6523 12.6368 34.182 7.2337 25.2297 9.67823C22.2055 10.7829 17.2726 14.7587 13.4062 12.0079C12.8539 11.6142 11.968 10.8212 12.0664 9.94073C12.2523 8.23448 16.7695 7.21182 18.7219 5.45635C21.3851 3.39464 24.7211 1.8087 27.9859 0.966509C26.3836 0.78604 24.5625 1.13057 23.2336 1.5626C19.6734 2.72745 17.207 5.4126 13.4172 6.91104C10.2836 8.14698 10.5516 9.19698 10.557 9.92432C10.5625 10.6517 11.1367 12.5548 12.8703 13.4899C19.4109 17.0064 24.0758 9.79307 30.157 10.8814ZM22.3039 39.4337C22.107 39.9259 21.2758 40.7735 20.8437 40.9157C20.8437 40.9157 22.1508 38.061 21.4453 36.7759C21.0133 35.6931 19.7226 35.2939 18.6562 35.5345C16.9391 36.0868 15.8672 38.7118 15.5828 40.3306C15.5062 40.7517 15.0469 39.9915 15.1125 39.1439C15.3367 36.2782 17.5351 35.1681 17.7758 32.647C17.9289 31.0884 16.4359 29.9618 14.9047 30.2845C12.9086 30.5087 11.9844 32.4228 11.0273 33.9759C10.6062 34.7196 9.75311 36.1415 9.66561 36.9892C9.58905 37.7274 9.40858 37.8806 9.23358 36.9618C8.47343 33.0626 13.3734 29.6993 13.0726 27.5829C12.7555 25.3407 11.1094 24.936 9.68749 25.5868C7.56561 26.5657 5.48749 30.0165 4.68358 31.6462C4.4539 31.9743 4.27343 32.8657 4.27343 32.8657C3.5078 30.9845 5.15389 28.4853 5.97421 27.2985C6.32968 26.697 7.10077 25.9751 6.77811 25.2423C6.28046 24.1048 5.4328 24.1321 4.74374 24.2689C2.9664 24.6243 0.964833 27.1673 0.964833 27.1673C0.899208 26.522 1.70311 25.2423 2.32655 24.5095C3.87968 22.6392 7.22655 22.3001 8.39686 25.1493C11.5797 22.9728 14.9594 24.2743 14.8336 28.3485C14.9594 28.7204 16.3539 28.2774 18.0437 29.5735C19.739 30.8696 19.2141 33.8118 19.2141 33.8118C19.2141 33.8118 20.9094 33.9923 21.8445 35.1681C22.7086 36.2564 22.8453 38.2907 22.3039 39.4337ZM46.7273 25.6415C46.7273 25.6415 50.7305 21.6329 52.1687 20.7087C53.607 19.7845 55.707 18.5212 55.7781 18.8767C55.8492 19.2321 52.4312 21.6384 51.1461 23.1478C49.8664 24.6626 47.7117 27.1946 47.7117 27.1946L46.7273 25.6415Z" fill="#86BC24"/>
</svg>
