<svg width="56" height="62" viewBox="0 0 56 62" fill="none" xmlns="http://www.w3.org/2000/svg">
<path d="M2.5 5.5L16.6667 22.5" stroke="#86BC24" stroke-width="4" stroke-linecap="round" stroke-linejoin="round"/>
<path d="M53.5 5.5L39.3334 22.5" stroke="#86BC24" stroke-width="4" stroke-linecap="round" stroke-linejoin="round"/>
<path d="M37.9167 2.66675L30.8334 19.6667" stroke="#86BC24" stroke-width="4" stroke-linecap="round" stroke-linejoin="round"/>
<path d="M18.0834 2.66675L25.1667 19.6667" stroke="#86BC24" stroke-width="4" stroke-linecap="round" stroke-linejoin="round"/>
<path d="M28 59.3334C38.9536 59.3334 47.8333 50.4537 47.8333 39.5001C47.8333 28.5464 38.9536 19.6667 28 19.6667C17.0463 19.6667 8.16663 28.5464 8.16663 39.5001C8.16663 50.4537 17.0463 59.3334 28 59.3334Z" fill="#3C3434" stroke="#86BC24" stroke-width="4"/>
<path d="M28 49.4168C33.4769 49.4168 37.9167 44.977 37.9167 39.5002C37.9167 34.0233 33.4769 29.5835 28 29.5835C22.5232 29.5835 18.0834 34.0233 18.0834 39.5002C18.0834 44.977 22.5232 49.4168 28 49.4168Z" fill="#86BC24" stroke="white" stroke-width="4"/>
</svg>
