<svg width="54" height="44" viewBox="0 0 54 44" fill="none" xmlns="http://www.w3.org/2000/svg">
<path d="M14.9167 9.91675C14.9167 5.91269 18.1627 2.66675 22.1667 2.66675H33.0417C37.0458 2.66675 40.2917 5.91269 40.2917 9.91675V12.3334H14.9167V9.91675Z" stroke="#3C3434" stroke-width="4" stroke-linecap="round" stroke-linejoin="round"/>
<path d="M2.83337 23.2085L26.4139 29.1036C26.7987 29.1999 27.2013 29.1999 27.5862 29.1036L51.1667 23.2085V38.9168C51.1667 40.2516 50.0848 41.3335 48.75 41.3335H5.25004C3.91535 41.3335 2.83337 40.2516 2.83337 38.9168V23.2085Z" fill="white" stroke="#86BC24" stroke-width="4" stroke-linecap="round" stroke-linejoin="round"/>
<path d="M51.1667 25.6252V14.7502C51.1667 13.4154 50.0848 12.3335 48.75 12.3335H5.25004C3.91535 12.3335 2.83337 13.4154 2.83337 14.7502V25.6252" stroke="#3C3434" stroke-width="4" stroke-linecap="round" stroke-linejoin="round"/>
<path d="M30.0209 20.7918C30.0209 22.4602 28.6684 23.8127 27.0001 23.8127C25.3317 23.8127 23.9792 22.4602 23.9792 20.7918C23.9792 19.1235 25.3317 17.771 27.0001 17.771C28.6684 17.771 30.0209 19.1235 30.0209 20.7918Z" fill="#3C3434"/>
</svg>
