<svg width="522" height="511" viewBox="0 0 522 511" fill="none" xmlns="http://www.w3.org/2000/svg">
<g clip-path="url(#clip0_51_980)">
<path d="M265.69 0.530249C265.037 0.734159 263.977 1.18276 263.365 1.50902C262.754 1.79449 261.449 2.03919 260.511 1.99841C259.45 1.95762 257.411 2.44701 255.25 3.18109C253.333 3.87438 250.682 4.64924 249.337 4.85315C246.727 5.34254 245.095 5.70958 241.017 6.8107C238.693 7.38165 238.081 7.78947 236.083 9.86936C234.859 11.1744 233.554 12.2347 233.187 12.2347C231.841 12.2347 231.597 13.2135 232.127 16.2314C232.575 18.9638 232.575 19.2492 231.678 21.1252C230.903 22.7157 230.822 23.2867 231.189 23.98C231.434 24.4286 231.638 26.1006 231.638 27.6096C231.638 29.2409 231.841 30.6275 232.127 30.9129C232.494 31.28 232.494 31.5247 232.127 31.8917C231.841 32.1772 231.638 33.0336 231.638 33.8085C231.638 34.5833 231.434 36.2962 231.148 37.642C230.7 39.885 230.7 40.0889 231.434 40.6191C232.168 41.19 232.168 41.19 231.434 41.761C230.903 42.128 230.618 42.9844 230.496 44.6157C230.333 46.6548 230.414 47.0219 231.27 47.8375C232.412 48.9386 234.084 50.8962 234.084 51.1409C234.084 51.2224 233.717 51.2224 233.269 51.1001C232.82 50.9777 232.453 50.6515 232.453 50.3252C232.453 49.5504 231.841 49.2649 230.7 49.5504C229.639 49.8358 228.375 51.9157 227.763 54.4034C227.478 55.6269 226.988 56.2794 226.01 56.8911C225.235 57.3398 223.318 58.8487 221.768 60.2761C216.875 64.6398 212.511 67.1275 210.513 66.6789C209.983 66.5565 209.167 66.7196 208.678 67.0867C208.188 67.4129 207.495 67.6984 207.128 67.6984C206.761 67.6984 205.293 68.0655 203.865 68.5141C202.438 68.9627 201.011 69.2481 200.685 69.1258C199.787 68.7587 195.709 70.1046 194.404 71.2057C193.752 71.7358 193.099 72.1844 192.895 72.1844C192.732 72.1844 191.794 72.837 190.856 73.6118C189.918 74.3867 188.899 75.0392 188.613 75.0392C188.328 75.0392 187.635 75.4062 187.064 75.8548C186.493 76.3034 185.799 76.6705 185.555 76.6705C185.269 76.6705 184.168 77.0783 183.067 77.5677C180.906 78.5872 180.824 78.6688 178.5 84.623C176.746 89.1498 176.664 89.5984 177.48 91.1889C178.296 92.6571 180.702 93.3912 185.269 93.4319C188.736 93.4727 187.92 94.1252 184.331 94.2068C183.067 94.2068 181.762 94.4923 181.313 94.8185C180.865 95.1448 180.131 95.4303 179.641 95.4303C179.152 95.4303 178.01 96.2867 176.868 97.4694C174.666 99.7939 171.648 101.344 168.304 101.874C166.061 102.241 165.857 102.2 162.921 100.691C161.208 99.7939 159.292 99.1007 158.598 99.1007C157.905 99.1007 157.008 98.8967 156.559 98.652C156.029 98.3666 155.132 98.3666 154.031 98.6113C151.054 99.223 145.385 98.4481 142.449 96.98C140.165 95.8789 139.635 95.7565 137.555 96.0012C136.087 96.1643 134.904 96.5722 134.374 97.0615C133.885 97.5101 133.192 97.8772 132.784 97.8772C132.172 97.8772 132.09 97.6325 132.254 96.6945C132.457 95.7973 132.254 95.1448 131.52 94.1252C129.277 91.0258 127.237 87.8448 127.237 87.3554C127.237 87.0699 127.686 86.6621 128.257 86.4582C128.828 86.2543 129.277 85.8057 129.277 85.4794C129.277 85.1939 129.562 84.8269 129.888 84.6638C130.704 84.3783 130.663 83.685 129.684 81.7682C129.236 80.871 128.869 79.9738 128.869 79.7291C128.869 79.4844 127.808 79.0766 126.544 78.7912C123.812 78.2202 121.447 78.7504 120.101 80.1777C119.204 81.1565 115.941 82.0945 115.574 81.5236C115.452 81.3196 115.003 81.1565 114.595 81.1565C114.187 81.1565 113.78 80.9934 113.698 80.7487C113.657 80.5448 112.556 80.1777 111.374 79.9331C110.15 79.6884 108.723 79.1582 108.233 78.6688C107.744 78.2202 107.092 77.8939 106.806 77.9347C106.48 78.0163 105.827 77.8532 105.379 77.5677C103.992 76.8336 103.136 77.7308 103.421 79.566C103.625 80.871 103.87 81.1157 105.297 81.5236C106.969 82.0537 107.051 82.1353 107.418 84.4599C107.622 85.6833 107.499 86.1727 106.643 87.1923C105.42 88.6604 105.338 89.5576 106.398 90.0878C107.132 90.4956 107.336 91.1074 108.03 95.3079C108.437 97.7141 108.764 98.4074 109.335 98.0403C109.579 97.918 110.028 98.1219 110.354 98.5297C112.108 100.814 113.78 103.587 114.024 104.647C114.187 105.3 114.677 106.238 115.166 106.768C115.941 107.624 116.023 108.154 115.9 111.825C115.819 115.821 116.349 118.676 117.165 118.676C117.776 118.676 117.083 125.691 116.39 126.465C115.86 127.036 115.86 127.2 116.43 127.648C116.838 127.974 117.042 128.872 117.042 130.258C117.042 132.542 117.287 133.072 118.388 133.48C118.755 133.602 119.081 134.132 119.081 134.581C119.081 135.111 119.571 135.723 120.305 136.131C120.957 136.498 121.528 137.069 121.528 137.314C121.528 138.007 119.775 138.415 118.143 138.088C117.246 137.925 116.308 138.088 115.37 138.537C113.372 139.557 109.579 139.76 108.274 138.904C107.132 138.129 106.969 137.15 107.907 136.457C108.845 135.764 107.989 133.562 106.969 134.092C106.561 134.296 105.379 134.581 104.359 134.744C102.932 134.948 102.279 135.315 101.627 136.212C101.137 136.865 100.73 137.558 100.73 137.762C100.73 137.966 99.8325 138.048 98.7314 137.925C97.0186 137.762 96.6515 137.884 96.2845 138.578C95.4281 140.168 93.389 139.883 93.389 138.17C93.389 137.721 93.1036 137.436 92.5734 137.436C92.1248 137.436 91.7578 137.273 91.7578 137.028C91.7578 136.824 91.4315 136.253 91.0645 135.805C90.3712 134.989 90.3712 134.989 89.2293 136.09C88.3729 136.906 87.7204 137.15 86.4562 137.11C85.192 137.069 84.7434 137.191 84.5395 137.762C84.1725 138.822 83.1529 139.883 82.4597 139.883C82.1334 139.883 81.1547 140.698 80.2575 141.718C79.3603 142.738 78.3408 143.553 77.9329 143.553C77.5659 143.553 76.995 143.798 76.7095 144.043C76.3017 144.491 76.2201 144.41 76.2609 143.757C76.424 142.289 76.2609 141.922 75.4453 141.922C75.0375 141.922 74.5073 141.677 74.3442 141.392C74.1811 141.065 73.6917 140.739 73.3247 140.576C72.7945 140.413 72.5906 139.883 72.5906 138.863C72.5906 137.477 71.4895 135.805 70.5515 135.805C70.3476 135.805 70.1437 135.519 70.1437 135.193C70.1437 134.826 69.6951 134.377 69.1242 134.173C68.2678 133.847 68.1454 133.602 68.3493 132.746C68.6756 131.4 67.9008 130.421 66.7181 130.748C66.1472 130.87 65.5762 130.707 65.2908 130.34C64.9237 129.891 64.8829 129.687 65.2092 129.687C65.4539 129.687 65.6578 129.239 65.6578 128.668C65.6578 127.77 65.4947 127.648 64.312 127.648C62.9662 127.648 62.9662 127.607 63.0886 126.017C63.1701 125.12 63.1293 124.386 63.0478 124.386C62.9254 124.386 61.9875 124.834 60.8864 125.364C59.1736 126.262 58.8473 126.302 58.2764 125.772C57.42 124.997 56.8082 125.038 56.3597 125.895C56.115 126.302 55.4625 126.547 54.7284 126.547C54.0351 126.547 53.3826 126.792 53.2603 127.118C53.1379 127.403 52.7301 127.648 52.3631 127.648C51.9961 127.648 51.4251 127.974 51.1397 128.341C50.8134 128.831 50.6095 128.872 50.5687 128.545C50.5687 127.444 46.3275 126.425 45.9197 127.444C45.7973 127.77 45.0225 128.341 44.1661 128.668C42.8611 129.239 42.6979 129.402 43.2281 129.81C43.5951 130.095 43.799 130.625 43.7175 130.992C43.6359 131.441 43.8398 131.726 44.2068 131.726C45.1448 131.726 45.4303 132.542 44.6554 133.113C44.1661 133.48 44.0029 133.969 44.1253 134.703C44.37 136.008 44.3292 136.008 43.0242 135.152C42.4532 134.785 41.76 134.581 41.4337 134.703C41.1482 134.826 40.455 134.663 39.9656 134.296C39.4762 133.969 38.6606 133.765 38.0897 133.888C37.5595 133.969 36.9886 133.888 36.8662 133.725C36.2137 132.664 33.8484 134.785 33.8076 136.498C33.8076 137.64 33.8076 137.64 33.3182 136.702C33.0328 136.049 32.625 135.805 32.1356 135.927C31.5239 136.09 31.3607 135.805 31.1568 134.54C30.9122 132.95 30.8306 132.909 29.6072 133.154C28.9139 133.317 27.8943 133.725 27.3642 134.051C26.834 134.377 25.4475 134.744 24.3056 134.826C22.6743 134.907 22.0626 135.152 21.4101 136.008C20.5945 136.987 18.7593 137.436 18.7593 136.62C18.7593 136.376 18.27 136.008 17.699 135.764C16.8834 135.478 16.394 135.519 15.66 136.008C15.1298 136.335 14.4773 136.62 14.1918 136.62C13.8656 136.62 13.2947 136.987 12.9276 137.477C12.3567 138.088 11.9081 138.251 11.0109 138.048C9.66512 137.762 8.15621 138.415 8.15621 139.312C8.15621 139.638 7.95231 139.801 7.70762 139.679C7.46293 139.516 7.17746 139.76 7.05512 140.25C6.89199 140.862 6.40262 141.188 5.21996 141.351C2.81387 141.759 0.774806 144.002 0.815587 146.163C0.856368 147.101 0.734024 148.325 0.570899 148.936C0.448556 149.548 0.530118 150.608 0.734024 151.302C0.978712 151.995 1.01949 152.444 0.815587 152.321C0.122305 151.873 0.040743 152.851 0.652462 154.116C1.14184 155.135 1.54965 155.38 2.5284 155.38C3.22168 155.38 3.99652 155.095 4.24121 154.768C4.60824 154.238 4.89371 154.238 6.11715 154.646C6.89199 154.931 7.58528 155.176 7.62606 155.176C7.66684 155.176 7.78918 155.665 7.95231 156.318C8.19699 157.215 8.11543 157.378 7.58528 157.174C7.13668 157.011 6.81043 157.256 6.52496 158.031C5.91324 159.621 5.99481 159.907 7.01434 159.662C7.7484 159.458 8.07465 159.662 8.48246 160.641C8.76793 161.293 8.97184 162.354 8.89028 162.965C8.68637 164.719 9.58356 164.515 10.8478 162.517C11.9897 160.682 12.0712 160.641 13.6617 160.886C14.5589 161.008 15.4153 161.416 15.6192 161.701C15.7823 162.027 16.394 162.313 16.9242 162.313C17.9437 162.313 18.7593 163.903 18.7593 165.983C18.7593 167.492 18.4331 167.696 17.1281 167.003C16.1086 166.473 15.4561 166.554 9.99137 167.819C6.68809 168.593 3.79262 169.164 3.54793 169.124C3.30324 169.083 3.09934 169.246 3.05856 169.531C3.05856 169.776 2.93621 170.143 2.77309 170.306C2.12059 170.918 2.48762 171.244 4.20043 171.693C5.1384 171.938 6.48418 172.386 7.17746 172.712C7.91153 172.998 8.84949 173.161 9.33887 173.039C11.2964 172.549 14.9667 176.301 15.9047 179.89C16.2717 181.195 16.2717 181.684 15.9047 181.888C15.6192 182.051 15.4968 182.622 15.5784 183.153C15.66 183.968 16.027 184.172 17.7398 184.458C21.7364 185.069 23.6531 184.376 23.6531 182.337C23.6531 181.644 25.162 180.665 26.2631 180.665C26.5893 180.665 27.0379 180.91 27.2826 181.236C27.6089 181.603 28.1798 181.684 29.077 181.521C30.0965 181.317 30.4228 181.032 30.5043 180.135C30.6267 179.156 31.4015 178.503 31.4015 179.36C31.4015 179.564 32.0948 180.787 32.9512 182.133C34.5009 184.498 34.5417 184.539 36.5807 184.662C37.8042 184.743 38.7829 184.58 38.9461 184.335C39.15 184.009 39.517 184.131 40.1695 184.743C40.6589 185.192 41.2298 185.559 41.4337 185.518C42.4532 185.273 46.8984 186.538 47.1023 187.149C47.2247 187.516 47.7548 188.291 48.2442 188.903C49.0598 189.882 49.3045 189.963 50.6911 189.678C51.5475 189.474 52.2 189.474 52.2 189.678C52.2 189.882 52.7301 190.045 53.3826 190.045C54.6468 190.045 56.2373 191.187 58.6026 193.715C59.8261 195.061 59.9076 195.306 59.8261 197.997C59.7853 199.547 59.9076 201.097 60.0707 201.341C60.397 201.872 63.2109 202.076 63.2109 201.586C63.2109 201.423 62.8439 200.934 62.3953 200.444C61.9467 199.996 61.4573 199.017 61.335 198.324C61.0903 197.059 61.1311 197.019 62.8439 196.815C65.1276 196.57 66.4734 196.652 66.4734 197.059C66.4734 197.222 66.6773 197.386 66.9628 197.386C67.9823 197.386 70.5515 198.813 70.7962 199.506C71.1633 200.77 72.509 201.219 74.2626 200.689C75.119 200.444 76.3017 200.322 76.8726 200.485C77.5251 200.648 77.8922 200.567 77.8922 200.281C77.8922 199.996 78.2592 199.914 78.8709 200.077C79.4011 200.2 79.972 200.118 80.1351 199.873C80.2575 199.629 80.8284 199.547 81.3586 199.669C81.8479 199.792 82.4189 199.71 82.5412 199.465C83.0306 198.691 83.7239 198.976 83.4792 199.833C83.3568 200.281 83.4384 200.77 83.6423 200.893C83.8462 201.015 83.887 201.545 83.7647 202.116C83.5608 202.891 83.7239 203.177 84.4172 203.421C85.2736 203.748 85.2328 203.829 83.6423 204.849C82.7451 205.46 81.8072 205.95 81.5625 205.95C81.3586 205.95 81.1547 206.235 81.1547 206.562C81.1547 206.888 81.3178 207.173 81.5217 207.173C82.1742 207.173 83.1937 208.397 83.1937 209.212C83.1937 209.62 82.8267 210.028 82.3781 210.15C80.9915 210.517 81.4809 211.17 83.9278 212.312C85.192 212.924 86.3747 213.495 86.5786 213.576C86.7417 213.658 87.0272 213.372 87.1903 212.883C87.5165 212.026 87.5573 212.067 89.2293 213.291C91.3092 214.759 91.8393 214.8 93.5522 213.495C95.265 212.189 95.5912 212.23 95.265 213.535C95.1018 214.106 95.1834 214.84 95.4281 215.126C96.0806 215.901 95.5097 217.777 94.6125 217.777C94.2454 217.777 93.5929 218.144 93.1443 218.633C92.4103 219.449 92.4103 219.489 93.1036 220.02C93.5114 220.305 94.5717 220.631 95.5504 220.795C98.3643 221.243 99.6286 221.855 100.893 223.364L102.116 224.791L101.219 225.484C100.73 225.852 100.24 226.708 100.077 227.401C99.9548 228.135 98.9761 229.522 97.875 230.705C95.999 232.662 95.9175 232.825 96.1214 234.66C96.3253 236.414 96.57 236.74 98.4459 238.127C100.974 240.003 101.749 240.9 102.32 242.368C102.565 242.98 103.013 243.469 103.34 243.469C103.707 243.469 104.278 244.081 104.645 244.774C105.012 245.508 105.46 246.202 105.583 246.324C106.113 246.773 106.969 248.812 107.622 251.259C108.111 253.135 108.519 253.91 109.049 253.991C109.702 254.114 112.271 255.867 114.147 257.417C114.432 257.662 115.9 258.069 117.409 258.314C119.978 258.763 120.101 258.803 120.549 260.19C120.998 261.577 121.08 261.617 123.404 261.821C125.647 262.025 125.851 262.107 126.381 263.33C126.952 264.635 127.849 265.084 128.135 264.227C128.216 264.024 128.828 264.268 129.48 264.839C130.949 266.103 131.316 266.144 131.316 265.084C131.316 263.901 133.028 263.289 133.518 264.268C133.762 264.839 133.518 265.288 132.539 266.267C131.805 266.96 131.03 267.531 130.867 267.531C130.663 267.531 130.5 267.979 130.5 268.51C130.5 269.081 130.337 269.652 130.092 269.774C129.44 270.182 129.644 271.609 130.418 271.854C132.131 272.425 132.947 273.036 132.743 273.567C132.621 273.893 132.865 274.219 133.355 274.341C133.803 274.464 134.17 274.79 134.17 275.076C134.17 275.361 134.537 276.054 134.986 276.625C135.924 277.808 136.046 278.95 135.231 278.95C134.333 278.95 134.089 279.643 134.619 280.663C135.067 281.478 135.067 281.56 134.497 281.071C133.966 280.663 133.762 280.663 133.518 281.03C133.355 281.315 133.599 281.805 134.089 282.253C134.578 282.62 134.986 283.15 134.986 283.436C134.986 284.292 133.722 286.331 133.232 286.25C131.601 286.046 131.193 287.025 132.376 288.248C133.11 288.982 133.11 288.982 130.296 289.798C129.277 290.124 129.032 290.41 128.95 291.592C128.869 292.326 128.91 293.591 129.073 294.365C129.277 295.467 129.48 295.711 130.092 295.548C130.541 295.426 131.112 295.63 131.397 295.997C132.131 296.894 136.046 299.341 136.74 299.341C137.066 299.341 137.637 299.953 138.004 300.727C138.697 302.196 139.594 303.093 140.124 302.93C140.532 302.807 141.307 303.419 144.284 306.192C146.445 308.272 146.935 309.414 148.24 315.45C148.607 317.244 149.096 319.446 149.341 320.344C149.545 321.241 149.871 322.791 150.034 323.81C150.442 326.176 150.809 327.073 151.829 328.215C152.277 328.704 152.481 329.112 152.277 329.112C150.972 329.112 148.648 323.973 147.791 319.243C147.506 317.489 146.853 315.287 146.364 314.349C145.589 312.84 141.552 308.476 140.084 307.579C139.839 307.416 138.779 306.6 137.8 305.744C136.413 304.52 136.128 304.112 136.617 303.827C137.107 303.541 137.107 303.338 136.617 302.4C135.842 300.972 135.108 301.217 133.477 303.582C132.172 305.499 132.131 305.662 132.131 309.7C132.131 311.943 131.887 316.184 131.56 319.12C131.234 322.016 130.663 327.807 130.296 331.967C129.929 336.126 129.358 341.836 129.032 344.65C128.461 349.544 128.542 351.134 129.317 351.134C129.521 351.134 129.684 351.093 129.725 351.012C129.725 350.971 129.847 350.115 129.929 349.136C130.051 347.994 130.582 346.771 131.275 345.873C131.927 345.058 132.498 344.16 132.621 343.834C132.865 343.059 137.025 347.015 137.025 347.994C137.025 348.524 136.658 348.687 135.19 348.687C134.17 348.687 133.355 348.483 133.355 348.279C133.355 348.035 132.825 347.872 132.172 347.872C130.949 347.872 130.5 348.443 130.5 349.992C130.5 350.482 130.051 351.664 129.48 352.602C128.787 353.826 128.502 354.682 128.706 355.376C128.828 355.906 128.665 358.353 128.339 360.8C127.972 363.206 127.605 366.305 127.441 367.651C127.034 371.77 125.239 381.884 123.934 387.553C123.282 390.53 122.507 393.955 122.303 395.179C122.058 396.402 121.691 398.36 121.487 399.502C121.12 401.5 117.45 408.229 115.737 410.146C115.248 410.635 114.106 411.41 113.127 411.9L111.333 412.715L112.148 414.306C112.923 415.896 112.964 415.896 114.473 415.448C115.656 415.081 115.982 415.081 116.145 415.488C116.39 416.304 117.939 417.609 118.592 417.609C118.918 417.609 119.244 417.242 119.367 416.793C119.611 415.896 120.182 415.774 121.61 416.345C122.14 416.549 123.037 416.834 123.69 416.957C124.75 417.201 124.791 417.324 124.791 419.771C124.791 421.891 124.587 422.584 123.567 424.134C122.099 426.336 122.058 426.744 123.241 427.56C124.872 428.743 126.014 428.416 126.707 426.581C127.482 424.624 128.828 424.257 128.542 426.092C128.339 427.478 128.869 427.927 131.52 428.62C132.661 428.906 133.762 429.314 134.048 429.517C134.333 429.762 134.7 429.803 134.945 429.681C135.149 429.558 135.842 429.721 136.454 430.048C137.107 430.374 137.841 430.659 138.045 430.659C138.289 430.659 139.186 431.149 140.043 431.72C141.552 432.739 141.796 432.78 144.977 432.535L148.321 432.25L148.607 433.922C148.811 435.227 149.096 435.676 149.953 436.002C150.524 436.206 152.032 437.511 153.337 438.857C155.336 441.018 155.703 441.263 156.151 440.692C156.518 440.243 157.13 440.162 158.557 440.325C160.27 440.488 160.637 440.406 162.065 439.264C162.921 438.571 163.777 438 163.9 438C164.063 438 165.123 438.326 166.306 438.734C167.937 439.305 168.671 439.876 169.568 441.222C170.18 442.16 171.322 443.547 172.056 444.321C173.647 446.034 175.033 446.157 178.5 444.933C181.803 443.791 184.127 443.832 185.31 445.137C186.452 446.36 187.145 446.401 188.532 445.3C189.307 444.729 189.796 444.607 190.326 444.852C190.734 445.096 193.262 445.3 195.954 445.382L200.848 445.545L200.97 444.403C201.052 443.75 200.807 442.812 200.44 442.241C199.95 441.507 199.91 441.059 200.236 440.488C200.44 440.039 200.644 439.305 200.644 438.857C200.644 437.674 201.99 437.429 203.58 438.408C204.314 438.857 205.293 439.224 205.741 439.224C206.231 439.224 207.291 439.591 208.188 440.039C209.085 440.488 210.268 440.855 210.839 440.855C212.674 440.855 217.079 442.69 217.201 443.506C217.405 444.892 219.444 445.422 220.994 444.484C222.421 443.587 224.46 444.362 226.132 446.483C226.948 447.543 227.723 448.889 227.845 449.501C228.171 451.173 229.639 450.928 230.169 449.134C230.333 448.603 230.577 448.236 230.74 448.277C230.903 448.318 231.434 448.196 231.964 448.033C232.616 447.829 233.146 447.91 233.636 448.359C234.044 448.726 235.349 449.134 236.49 449.297C238.897 449.582 239.794 450.52 239.06 452.029C238.122 453.946 238.122 455.047 239.06 455.7C239.549 456.067 240.283 456.352 240.65 456.352C241.058 456.352 242.404 456.76 243.668 457.249C245.789 458.065 246.115 458.31 246.849 460.104C247.257 461.164 247.991 462.143 248.399 462.265C249.622 462.673 251.416 462.102 253.252 460.797C254.434 459.941 255.168 459.655 255.862 459.859C256.392 459.982 256.963 459.9 257.126 459.615C257.289 459.37 257.697 459.248 258.064 459.37C258.472 459.452 259.41 459.655 260.225 459.778C261.041 459.941 262.509 460.675 263.488 461.45C264.466 462.225 265.894 463.081 266.669 463.326C267.851 463.734 268.137 463.693 268.585 463.081C269.075 462.429 269.156 462.429 270.053 463.04C270.543 463.407 271.399 463.693 271.889 463.693C272.663 463.693 272.827 463.448 272.827 462.551C272.827 460.879 274.458 459.452 276.048 459.737C276.986 459.941 277.557 459.778 278.454 459.003C279.066 458.473 280.167 457.902 280.82 457.739C281.472 457.576 282.084 457.331 282.206 457.168C282.329 457.005 283.389 456.964 284.572 457.086C286.366 457.249 286.855 457.453 287.182 458.228C287.671 459.329 287.997 459.411 289.18 458.758C289.914 458.391 289.955 458.269 289.425 457.657C289.098 457.29 288.69 456.556 288.568 456.107C288.405 455.618 287.753 455.006 287.059 454.721C285.061 453.864 284.979 453.416 285.428 444.362C285.632 439.835 285.713 435.676 285.591 435.227C285.306 434.167 286.04 431.149 287.141 428.743C289.058 424.542 294.155 419.281 297.377 418.18C298.356 417.854 299.049 417.895 300.313 418.343C301.944 418.873 301.985 418.873 302.964 417.731C305.166 415.121 307.572 412.715 307.98 412.715C308.714 412.715 312.792 409.82 314.546 408.066C316.707 405.945 320.01 404.477 322.253 404.64C323.966 404.763 324.007 404.803 324.007 406.149C324.007 408.27 325.312 409.004 329.92 409.493C332.041 409.697 334.814 409.779 336.038 409.657C338.444 409.412 339.871 409.901 340.687 411.206C341.013 411.736 341.013 412.022 340.564 412.267C339.749 412.797 340.32 413.857 341.625 414.387C342.277 414.632 344.071 414.877 345.621 414.917C347.212 414.999 348.924 415.162 349.414 415.366C350.311 415.652 350.393 415.57 350.27 414.51C350.107 413.001 350.596 412.267 352.309 411.369L353.696 410.635L354.838 411.981C355.49 412.715 355.98 413.653 356.02 414.02C356.02 415.448 357.04 415.855 360.914 415.937C364.095 415.978 364.788 415.896 365.685 415.162C367.031 414.102 367.276 414.143 368.092 415.325C368.54 416.059 368.622 416.549 368.336 417.038C368.051 417.528 368.092 417.976 368.377 418.465C368.703 418.996 368.622 419.403 368.092 420.219C367.725 420.831 367.48 421.443 367.602 421.606C367.684 421.769 368.948 421.891 370.375 421.891C371.803 421.85 373.189 422.014 373.475 422.217C373.801 422.462 374.168 422.462 374.494 422.177C374.861 421.85 375.351 422.095 376.37 423.155C377.92 424.705 378.246 424.828 378.613 423.93C378.899 423.155 380.081 423.115 380.081 423.89C380.081 424.705 381.019 425.358 382.324 425.439C382.936 425.521 383.548 425.765 383.629 426.051C383.752 426.336 384.078 426.581 384.363 426.581C384.73 426.581 384.893 426.989 384.853 427.682C384.771 428.539 385.057 428.906 385.913 429.354C386.933 429.844 387.177 429.844 387.748 429.314C388.156 428.946 388.89 428.783 389.502 428.906C390.766 429.15 391.378 428.457 390.684 427.601C390.277 427.111 390.317 426.989 391.092 426.989C391.582 426.989 392.316 427.397 392.723 427.886C393.335 428.661 393.58 428.743 393.988 428.335C394.844 427.478 396.394 427.682 396.394 428.62C396.394 429.11 396.108 429.436 395.741 429.436C394.599 429.436 395.374 430.415 396.72 430.7C398.188 430.986 398.596 430.659 398.229 429.395C398.066 428.906 398.229 428.172 398.596 427.601C399.412 426.377 401.451 426.214 403.571 427.234C405.284 428.049 406.1 427.764 406.263 426.296C406.385 425.195 406.548 425.113 409.199 424.746C410.79 424.501 412.095 424.093 412.217 423.808C412.421 423.196 413.318 423.155 414.338 423.808C414.99 424.216 415.235 424.134 416.05 423.115C416.58 422.462 416.988 421.606 417.029 421.279C417.029 420.953 417.274 420.26 417.559 419.73C418.212 418.506 417.845 417.446 416.825 417.731C416.417 417.813 415.806 417.772 415.52 417.568C415.153 417.324 415.112 417.201 415.439 417.201C416.295 417.201 418.742 414.224 418.987 412.919C419.231 411.655 419.272 411.614 421.556 411.696C423.676 411.777 423.962 411.696 425.022 410.513C425.634 409.82 426.164 408.963 426.164 408.596C426.164 408.229 426.45 407.781 426.817 407.658C427.224 407.495 427.347 407.128 427.224 406.679C426.898 405.66 428.407 404.192 429.1 404.885C429.753 405.538 430.65 405.497 430.65 404.803C430.65 403.947 431.955 403.58 432.363 404.355C432.771 405.007 433.749 405.171 434.076 404.6C434.198 404.436 434.076 403.743 433.831 403.05C433.464 402.071 433.505 401.663 434.116 400.766C434.483 400.154 435.095 399.665 435.421 399.665C435.748 399.665 436.523 399.094 437.134 398.401C437.868 397.626 438.398 397.3 438.562 397.585C438.969 398.238 440.03 398.115 440.03 397.422C440.03 396.606 441.498 395.913 442.558 396.239C443.537 396.525 444.108 395.872 444.108 394.282C444.108 393.67 444.312 393.058 444.516 392.936C444.76 392.814 444.923 393.058 444.923 393.466C444.923 393.915 445.168 394.486 445.494 394.73C445.984 395.138 446.228 395.016 446.759 394.2C447.207 393.548 447.86 393.14 448.431 393.14H449.409L448.39 390.856C447.126 388.042 447.126 387.92 448.349 386.982C448.92 386.533 449.491 385.758 449.654 385.269C449.776 384.779 450.714 383.556 451.693 382.618C452.672 381.639 453.488 380.497 453.488 380.13C453.488 379.763 453.855 379.152 454.303 378.744C455.404 377.806 455.404 375.767 454.303 375.196C453.691 374.869 453.528 374.502 453.732 373.809C453.977 372.708 453.324 371.117 452.59 371.117C452.305 371.117 451.734 371.484 451.285 371.892C450.796 372.3 449.532 372.871 448.39 373.157C441.906 374.665 442.477 374.625 441.702 373.605C441.294 373.075 440.682 372.749 440.193 372.79C439.744 372.871 438.847 372.545 438.235 372.015C437.583 371.525 436.849 371.117 436.563 371.117C436.278 371.117 435.829 370.832 435.544 370.506C435.258 370.179 434.647 369.894 434.116 369.894C433.627 369.894 432.893 369.527 432.444 369.038C431.914 368.426 431.384 368.263 430.568 368.426C429.59 368.63 429.345 368.467 428.774 367.325C428.407 366.631 427.551 365.367 426.939 364.592C426.286 363.817 425.756 362.961 425.756 362.716C425.756 362.431 425.512 362.145 425.185 362.023C424.329 361.697 424.859 360.106 426.001 359.658C427.306 359.209 427.224 358.883 425.552 356.844C424.778 355.906 424.125 354.968 424.125 354.764C424.125 354.601 424.614 353.826 425.267 353.092C427.347 350.604 428.285 349.054 428.04 348.443C427.673 347.464 429.345 346.118 430.691 346.322C432.281 346.567 432.526 346.077 431.506 344.65C431.017 343.997 430.65 343.141 430.65 342.774C430.65 342.407 430.446 341.754 430.242 341.306C429.957 340.776 429.957 340.286 430.201 339.797C430.528 339.185 430.365 338.777 429.263 337.717C428.081 336.575 427.755 336.453 426.123 336.657C424.614 336.86 424.003 336.697 422.249 335.678L420.128 334.454L420.169 332.007C420.169 329.193 419.639 328.296 417.967 328.296C416.988 328.296 416.784 328.133 416.784 327.317C416.784 326.787 416.499 326.135 416.132 325.849C415.602 325.36 415.643 325.197 416.662 324.381C417.274 323.851 418.171 323.402 418.62 323.402C419.068 323.402 419.802 323.117 420.21 322.791C420.903 322.26 421.148 322.301 422.29 322.995C423.024 323.443 423.84 323.81 424.166 323.81C424.451 323.81 425.675 322.75 426.857 321.486C428.856 319.324 429.182 319.161 430.813 319.12C432.281 319.12 432.771 318.916 433.546 317.978C434.32 316.959 434.361 316.633 433.994 315.368C433.586 314.063 433.668 313.778 434.565 312.595C435.136 311.861 435.707 310.597 435.829 309.822C435.992 308.639 435.911 308.354 435.177 308.109C434.687 307.987 433.097 306.641 431.629 305.214L428.937 302.522L428.652 299.626C428.448 297.016 428.285 296.69 427.551 296.568C427.061 296.486 426.327 296.078 425.919 295.63C425.552 295.222 425.022 294.855 424.737 294.855C423.717 294.855 422.535 292.979 422.29 290.981C422.168 289.839 422.208 288.738 422.371 288.534C422.861 287.922 424.859 287.106 425.879 287.106C427.265 287.106 428.448 286.087 429.386 284.129C430.487 281.845 430.446 281.03 429.182 278.664C427.673 275.891 426.327 274.545 425.675 275.198C425.389 275.483 425.063 275.687 424.941 275.687C424.655 275.687 424.737 274.056 425.145 273.159C425.552 272.139 425.185 271.772 423.187 271.201L421.393 270.712L421.76 268.632C421.964 267.449 422.412 266.226 422.738 265.859C423.513 265.002 423.473 262.882 422.657 262.229C421.556 261.291 421.23 260.272 421.76 259.415C422.127 258.803 422.086 258.518 421.515 257.947C420.903 257.295 420.251 257.254 416.377 257.458C412.176 257.662 411.85 257.743 409.118 259.293C406.671 260.679 406.14 260.843 405.733 260.353C405.039 259.497 403.49 259.66 402.796 260.679C402.47 261.21 401.818 262.025 401.369 262.555C400.635 263.371 400.594 263.616 401.084 264.595C402.185 266.878 402.185 267.449 401.206 267.979C400.676 268.224 399.738 268.917 399.126 269.488C398.188 270.386 397.617 270.549 395.374 270.589C393.05 270.63 392.723 270.549 392.723 269.896C392.723 269.448 392.52 268.754 392.316 268.346C391.949 267.653 392.112 267.49 393.906 266.96C397.209 265.981 397.658 265.655 397.128 264.472C396.761 263.697 396.842 263.208 397.576 261.821C398.718 259.619 398.678 258.559 397.373 257.539C395.537 256.071 395.945 252.89 398.31 250.321C398.841 249.709 398.922 249.383 398.555 248.812C398.147 248.159 398.474 247.67 400.798 245.427C402.307 243.959 404.713 241.96 406.181 240.982C409.362 238.82 409.525 238.657 409.281 237.352C409.199 236.781 409.321 235.435 409.566 234.375C409.892 232.988 409.892 232.05 409.566 231.276C408.954 229.603 409.892 228.625 413.481 227.401C417.111 226.178 418.823 224.71 418.823 222.834C418.823 221.936 419.027 221.488 419.558 221.365C420.618 221.08 427.306 213.617 427.632 212.312C427.755 211.7 428.285 211.048 428.815 210.844C429.345 210.64 429.916 210.232 430.12 209.906C430.283 209.62 430.772 209.253 431.18 209.09C432.118 208.764 432.077 208.193 431.017 207.133C430.283 206.398 429.875 206.317 427.714 206.562L425.226 206.847L426.123 205.583C426.613 204.889 427.673 203.829 428.407 203.258C429.59 202.361 429.753 202.076 429.427 201.219C429.141 200.485 429.182 200.159 429.753 199.873C430.161 199.629 430.732 199.629 431.058 199.833C431.384 200.036 432.526 200.077 433.627 199.955L435.625 199.71L435.462 201.056C435.34 202.239 435.503 202.483 436.767 203.177C437.991 203.87 438.358 203.911 439.663 203.503C440.805 203.095 441.335 203.095 442.069 203.503C442.844 203.911 443.129 203.829 444.149 202.85C444.801 202.239 445.331 201.464 445.331 201.178C445.331 200.893 445.698 200.648 446.147 200.648C447.044 200.648 448.594 198.487 448.594 197.304C448.594 196.896 449.083 196.284 449.654 195.917C450.551 195.306 450.674 195.02 450.429 193.756C450.266 192.94 449.695 191.798 449.124 191.187C448.227 190.249 448.104 189.882 448.39 188.536C448.553 187.679 448.757 186.13 448.838 185.11C448.92 184.091 449.165 182.745 449.409 182.133C449.613 181.521 449.817 180.339 449.817 179.523C449.817 178.667 450.266 177.158 450.837 176.097C452.06 173.773 452.101 172.549 451.041 171.163C449.491 169.205 450.429 164.311 453.08 160.274C453.488 159.703 453.895 158.765 454.058 158.153C454.181 157.501 454.874 156.196 455.567 155.217C456.75 153.545 456.791 153.382 456.179 152.444C455.608 151.546 455.608 151.302 456.628 148.855C457.403 146.979 457.77 145.388 457.81 143.512C457.892 140.291 458.218 139.557 461.277 136.376C462.582 134.989 463.846 133.358 464.091 132.787C464.335 132.134 464.784 131.726 465.314 131.726C465.763 131.726 466.334 131.359 466.619 130.911C466.905 130.462 467.353 130.095 467.639 130.095C468.454 130.095 469.8 128.382 469.8 127.322C469.8 125.976 471.635 122.428 473.144 120.878C473.797 120.144 474.204 119.492 474.001 119.369C473.797 119.247 472.614 119.002 471.391 118.88C470.167 118.717 468.74 118.268 468.169 117.901C466.538 116.759 463.153 115.25 462.052 115.169C461.481 115.128 460.787 115.291 460.543 115.495C460.176 115.781 459.727 115.74 459.115 115.332C458.422 114.883 457.443 114.761 455.608 114.924C453.243 115.087 452.998 115.006 452.06 114.027C451.326 113.211 450.796 113.007 450.103 113.17C449.328 113.374 448.961 113.17 448.39 112.273C447.982 111.662 447.533 110.601 447.37 109.908C447.207 109.011 446.881 108.644 446.147 108.562C445.576 108.481 444.964 108.236 444.72 108.032C444.026 107.379 442.558 107.624 442.273 108.481C442.15 108.929 441.62 109.5 441.131 109.745C440.641 110.03 440.071 110.479 439.907 110.764C439.5 111.498 435.421 111.213 434.116 110.357C432.893 109.541 432.037 109.541 431.71 110.316C431.303 111.376 430.854 110.968 430.365 109.174C429.957 107.665 429.631 107.339 427.918 106.605C426.857 106.156 425.308 105.789 424.533 105.789C423.187 105.83 423.105 105.911 423.187 107.135C423.269 107.869 423.024 108.603 422.698 108.888C422.29 109.255 422.086 109.255 422.086 108.929C422.086 108.684 421.433 108.481 420.618 108.481C419.231 108.481 419.19 108.44 419.435 107.298C419.639 106.319 419.517 106.074 418.905 105.87C418.456 105.707 417.967 105.136 417.845 104.565C417.682 103.995 416.825 102.73 415.928 101.751C414.908 100.65 414.215 99.4269 414.052 98.5297C413.93 97.7141 413.685 96.9392 413.481 96.8169C413.277 96.6945 412.788 95.8381 412.38 94.8593C411.442 92.7386 408.75 91.1889 406.752 91.5967C405.896 91.7599 404.958 91.5152 403.53 90.7403C401.084 89.4353 399.126 89.5984 396.679 91.1889C395.782 91.7599 394.477 92.3308 393.743 92.4532C392.642 92.6163 392.316 92.4939 391.541 91.3928C390.848 90.4548 390.317 90.1286 389.379 90.1286C388.441 90.1286 387.789 89.7615 387.014 88.8643C386.035 87.6409 385.791 87.5593 382.814 87.437C380.081 87.3146 379.592 87.437 379.184 88.0895C378.817 88.6196 378.368 88.7828 377.634 88.6196C376.941 88.4973 376.37 88.6604 376.044 89.0682C375.391 89.8431 374.005 89.9247 373.801 89.1906C372.537 84.5006 372.292 84.0928 370.905 83.3995C370.049 83.0325 369.07 82.8694 368.54 83.0325C367.806 83.2364 367.725 83.1956 368.173 82.747C368.907 81.9722 368.785 81.4828 367.398 80.0146C366.379 78.9543 366.053 78.7912 365.4 79.1174C364.258 79.7291 362.545 78.7504 360.71 76.4666C359.854 75.447 358.916 74.6314 358.59 74.6314C358.304 74.6314 357.529 74.2643 356.877 73.7749C355.776 73.0001 355.653 72.9593 354.185 73.571C353.125 74.0196 352.472 74.1012 352.146 73.8157C351.657 73.4079 351.657 70.6755 352.146 68.2694C352.472 66.8012 351.534 65.0476 350.229 64.599C349.658 64.4358 349.536 64.1504 349.74 63.7018C349.903 63.2939 350.352 61.7442 350.76 60.2353C351.127 58.7263 351.657 57.2582 351.861 56.9727C352.105 56.6872 352.391 55.79 352.554 54.9744C352.839 53.5062 352.799 53.4655 351.33 53.0576C350.025 52.6906 349.618 52.7722 348.761 53.4655C346.681 55.0967 345.009 57.3805 345.009 58.6448C345.009 60.6023 344.194 62.3967 343.337 62.3967C342.399 62.3967 340.36 63.3755 338.933 64.4766C337.669 65.4554 336.364 65.4554 333.264 64.3951C331.185 63.7018 330.491 63.6202 329.431 63.9872C327.718 64.599 326.413 63.7425 326.168 61.9074C325.965 60.7655 326.168 60.3576 327.31 59.3381L328.697 58.1146L328.004 56.1571C327.433 54.6481 327.066 54.2403 326.372 54.2403C325.557 54.2403 325.516 54.118 325.842 53.18C326.087 52.609 326.25 51.7934 326.25 51.3448C326.25 50.8962 326.699 49.9174 327.27 49.1833C328.493 47.552 328.534 47.2258 327.473 46.2878C326.821 45.7168 326.535 45.6353 326.168 46.0023C325.475 46.6956 325.108 46.6141 324.823 45.7168C324.7 45.2682 323.803 44.2895 322.824 43.4738L321.03 42.0057L318.869 42.6582C316.911 43.2699 316.626 43.2699 315.606 42.6582C314.994 42.2911 313.771 42.0057 312.874 42.0057C311.569 42.0057 311.039 42.2504 310.386 43.1068C309.53 44.2487 309.53 44.2487 308.877 43.433C308.469 42.9029 308.306 42.128 308.429 41.19C308.714 39.1101 307.939 36.2554 306.757 34.9504C305.941 34.0939 305.329 33.8492 303.943 33.8492C302.352 33.8492 302.189 33.7677 302.189 32.8297C302.189 31.6878 301.006 31.4023 300.191 32.3811C299.946 32.6666 299.13 33.0336 298.396 33.1967C296.806 33.523 294.481 32.3811 294.278 31.1984C294.196 30.7498 293.91 29.2816 293.625 27.9358C293.34 26.59 293.136 24.8364 293.176 24.0208C293.217 23.0012 292.891 22.1448 292.116 21.0844C291.464 20.3096 290.648 19.0861 290.281 18.3928C289.425 16.8839 288.487 16.4353 287.467 17.047C287.059 17.3325 286.284 17.5364 285.836 17.5364C284.449 17.5364 281.391 19.4939 281.391 20.3504C281.391 21.6554 280.33 22.1856 279.27 21.4515C278.781 21.0844 277.924 20.799 277.435 20.799C276.905 20.799 276.497 20.5543 276.497 20.228C276.497 19.9425 276.211 19.4124 275.844 19.1269C275.477 18.8006 274.743 17.9034 274.213 17.0878C273.601 16.109 272.867 15.4973 272.052 15.2934C270.135 14.8856 269.931 14.437 269.931 10.3995C269.931 9.70623 270.053 8.56433 270.217 7.83025C270.42 6.68835 270.298 6.28053 269.36 5.30176C268.708 4.60846 268.178 3.54813 268.055 2.48779C267.77 0.448684 267.28 0.0408632 265.69 0.530249ZM424.941 134.581C424.941 134.785 424.859 134.989 424.778 134.989C424.655 134.989 424.451 134.785 424.329 134.581C424.207 134.336 424.288 134.173 424.492 134.173C424.737 134.173 424.941 134.336 424.941 134.581ZM13.4578 152.892C13.4578 153.137 13.2947 153.422 13.05 153.545C12.8461 153.667 12.6422 154.238 12.6422 154.727C12.6422 155.584 12.8461 155.706 14.3142 155.706C15.3745 155.747 16.027 155.543 16.1901 155.135C16.3125 154.809 16.5979 154.564 16.8018 154.564C17.0465 154.564 17.0873 154.891 16.965 155.258C16.8018 155.625 16.9242 156.073 17.2097 156.236C18.1476 156.807 15.4561 157.541 14.4365 156.97C13.9064 156.726 13.05 156.603 12.479 156.685C11.9081 156.807 11.5411 156.767 11.6226 156.563C12.0304 155.951 10.9701 155.706 10.3176 156.236C9.74668 156.726 9.7059 156.644 9.99137 155.38C10.1545 154.605 10.5623 153.626 10.9293 153.219C11.5818 152.484 13.4578 152.24 13.4578 152.892ZM333.183 157.419C333.183 157.868 331.552 158.806 331.266 158.479C331.144 158.357 331.144 157.99 331.266 157.623C331.552 156.97 333.183 156.767 333.183 157.419ZM74.2626 194.327C75.2822 194.857 75.4045 195.143 75.2006 196.081C74.8336 197.549 74.8336 197.549 73.4062 196.978C72.4275 196.57 72.0604 196.57 71.5711 196.978C71.0817 197.386 70.9186 197.304 70.5923 196.529C70.1845 195.346 70.7962 194.245 71.9789 194.001C72.4275 193.919 72.8353 193.797 72.9168 193.756C72.9984 193.756 73.5693 194.001 74.2626 194.327ZM69.3281 196.162C68.5533 196.692 68.1047 196.692 68.1047 196.162C68.1047 195.917 68.5125 195.754 69.0426 195.754C69.7767 195.754 69.8175 195.836 69.3281 196.162ZM102.565 210.803C102.687 211.048 102.402 211.129 101.912 211.048C100.689 210.803 100.403 210.436 101.464 210.436C101.912 210.436 102.402 210.599 102.565 210.803ZM98.9761 211.088C98.5683 211.496 95.8359 211.986 95.8359 211.659C95.8359 211.455 96.1622 211.211 96.57 211.129C97.6303 210.844 99.2615 210.803 98.9761 211.088ZM388.482 293.917C388.645 295.222 388.564 296.323 388.36 296.527C388.074 296.812 387.87 296.038 387.707 294.365C387.585 292.938 387.381 291.429 387.218 290.981C386.973 290.206 386.973 290.206 387.585 290.94C387.911 291.348 388.319 292.693 388.482 293.917ZM404.428 357.537C403.979 357.945 403.367 357.211 403.612 356.599C403.816 355.987 403.898 356.028 404.224 356.64C404.468 357.007 404.509 357.415 404.428 357.537ZM327.473 404.967C327.473 405.171 327.392 405.374 327.31 405.374C327.188 405.374 326.984 405.171 326.862 404.967C326.739 404.722 326.821 404.559 327.025 404.559C327.27 404.559 327.473 404.722 327.473 404.967ZM330.736 407.21C330.45 407.536 329.961 407.821 329.635 407.821C329.105 407.821 329.105 407.699 329.513 407.21C329.798 406.883 330.287 406.598 330.614 406.598C331.144 406.598 331.144 406.72 330.736 407.21ZM306.186 411.288C305.329 412.063 304.432 412.715 304.147 412.715C303.861 412.715 304.147 412.348 304.799 411.94C305.452 411.492 306.145 410.839 306.349 410.513C306.553 410.146 306.92 409.86 307.205 409.86C307.491 409.86 307.001 410.513 306.186 411.288ZM285.877 428.661C285.877 428.906 285.713 428.946 285.469 428.824C285.265 428.702 285.061 428.376 285.061 428.172C285.061 427.927 285.265 427.886 285.469 428.009C285.713 428.131 285.877 428.457 285.877 428.661ZM284.245 438.204C283.96 438.53 283.838 439.305 283.96 439.876C284.164 441.018 283.185 441.752 282.614 440.855C282.288 440.325 283.756 437.633 284.408 437.592C284.612 437.592 284.531 437.878 284.245 438.204ZM248.154 457.494C247.828 457.82 247.134 457.086 247.379 456.678C247.542 456.434 247.746 456.474 247.991 456.801C248.154 457.086 248.235 457.412 248.154 457.494Z" fill="#EBEBEB"/>
<circle cx="392" cy="321" r="17" fill="#A9DD4B" stroke="#86BC24" stroke-width="4"/>
<path d="M412.298 252.034C412.298 252.237 412.584 252.441 412.951 252.441C413.277 252.441 413.44 252.237 413.318 252.034C413.196 251.789 412.91 251.626 412.665 251.626C412.461 251.626 412.298 251.789 412.298 252.034Z" fill="#EBEBEB"/>
<path d="M408.587 253.502C407.405 254.725 406.997 254.888 405.937 254.684C404.835 254.48 404.468 254.684 403.286 255.989C402.511 256.846 401.451 258.436 400.88 259.537C400.309 260.639 399.534 261.862 399.167 262.27C398.474 263.004 397.413 266.226 397.74 266.552C397.821 266.674 398.718 265.206 399.656 263.289C401.94 258.763 404.591 255.704 406.222 255.704C407.119 255.704 407.976 255.215 409.362 253.869C410.545 252.768 411.034 252.034 410.626 252.034C410.3 252.034 409.362 252.686 408.587 253.502Z" fill="#EBEBEB"/>
<path d="M418.66 253.95C418.212 254.44 418.905 254.888 420.088 254.888C421.556 254.888 425.471 256.805 425.145 257.335C425.022 257.58 424.655 257.743 424.329 257.743C423.065 257.743 423.472 258.396 424.777 258.436C425.552 258.477 426.286 258.314 426.409 258.11C426.735 257.58 425.471 255.704 424.777 255.704C424.492 255.704 423.799 255.378 423.269 254.929C422.331 254.195 419.109 253.542 418.66 253.95Z" fill="#EBEBEB"/>
<path d="M397.209 268.55C397.209 268.917 397.413 269.162 397.658 269.08C397.903 268.999 398.107 268.754 398.107 268.55C398.107 268.346 397.903 268.102 397.658 268.02C397.413 267.939 397.209 268.183 397.209 268.55Z" fill="#EBEBEB"/>
<path d="M515.067 430.863C514.782 431.23 514.537 432.25 514.578 433.188C514.619 434.126 514.496 435.064 514.292 435.308C513.722 436.042 513.314 440.325 513.803 440.651C514.823 441.263 513.885 445.993 512.661 446.768C512.376 446.891 511.56 446.483 510.744 445.789C509.684 444.851 508.95 444.525 507.727 444.525C506.34 444.525 505.932 444.77 504.627 446.32C503.118 448.155 502.058 448.766 499.774 449.134C497.45 449.541 494.677 451.009 494.31 451.988C493.983 452.763 493.698 452.926 492.923 452.804C492.148 452.641 491.781 452.845 491.373 453.579C491.129 454.068 490.435 455.047 489.946 455.659C489.294 456.434 489.049 457.127 489.212 457.739C489.497 458.921 488.723 460.838 487.948 460.838C487.214 460.838 484.93 463.244 484.889 464.019C484.889 464.345 485.215 464.427 485.868 464.264C486.643 464.101 486.969 464.304 487.662 465.487C488.152 466.303 488.723 466.955 488.967 466.955C489.661 466.955 489.416 468.179 488.682 468.423C485.379 469.484 485.134 469.81 485.746 472.053C486.357 474.296 487.989 475.642 489.661 475.316C490.884 475.112 491.047 475.193 491.659 476.458L492.352 477.844L490.068 480.128C488.274 481.963 487.866 482.575 488.029 483.431C488.233 484.369 488.437 484.492 489.824 484.492C490.721 484.492 491.781 484.288 492.189 484.002C493.209 483.391 494.269 484.165 494.269 485.593C494.269 486.857 493.209 489.385 492.638 489.385C492.393 489.385 492.026 489.793 491.822 490.283C491.577 490.813 491.21 491.547 490.925 491.914C490.15 493.015 491.047 493.749 492.434 493.137C493.29 492.73 493.535 492.77 493.698 493.26C493.82 493.586 494.921 494.157 496.145 494.565C497.368 494.932 498.347 495.34 498.347 495.503C498.347 495.992 496.104 497.868 495.207 498.154C494.514 498.358 494.269 498.725 494.269 499.581C494.269 501.906 500.508 505.984 503.526 505.617C504.383 505.494 504.872 505.617 504.872 505.943C504.872 506.188 505.117 506.636 505.443 506.922C505.769 507.166 506.095 507.778 506.177 508.268C506.34 509.287 508.746 511.041 509.603 510.715C510.296 510.47 510.377 509.328 509.725 508.675C509.439 508.39 509.643 507.819 510.541 506.799C511.234 506.025 511.805 504.923 511.805 504.393C511.805 503.822 512.376 502.844 513.232 502.028C514.823 500.478 514.741 499.826 512.987 500.193C512.335 500.356 511.805 500.274 511.805 500.07C511.805 499.581 513.191 498.358 513.762 498.358C514.007 498.358 514.537 497.909 514.986 497.338C515.679 496.441 515.842 495.38 516.087 489.508C516.372 482.82 516.413 482.616 517.596 480.903C518.248 479.924 518.697 478.864 518.574 478.456C518.452 478.007 518.778 477.518 519.676 476.947C521.878 475.52 522 474.989 521.552 465.732C521.062 454.191 520.94 453.456 519.268 450.316L517.8 447.584L518.534 443.791C519.145 440.569 519.186 439.55 518.778 436.654C518.004 431.271 517.637 430.251 516.535 430.251C516.005 430.251 515.353 430.537 515.067 430.863Z" fill="#EBEBEB"/>
<circle cx="328" cy="393" r="11" fill="#A9DD4B" stroke="#86BC24" stroke-width="4"/>
<circle cx="422" cy="393" r="11" fill="#A9DD4B" stroke="#86BC24" stroke-width="4"/>
<circle cx="503" cy="473" r="11" fill="#A9DD4B" stroke="#86BC24" stroke-width="4"/>
<circle cx="153" cy="361" r="11" fill="#A9DD4B" stroke="#86BC24" stroke-width="4"/>
<circle cx="440" cy="136" r="11" fill="#A9DD4B" stroke="#86BC24" stroke-width="4"/>
<circle cx="212" cy="430" r="11" fill="#A9DD4B" stroke="#86BC24" stroke-width="4"/>
<circle cx="261" cy="17" r="11" fill="#A9DD4B" stroke="#86BC24" stroke-width="4"/>
<circle cx="183" cy="118" r="11" fill="#A9DD4B" stroke="#86BC24" stroke-width="4"/>
<circle cx="282.5" cy="166.5" r="25.5" fill="#A9DD4B" stroke="#86BC24" stroke-width="8"/>
<circle cx="44" cy="170" r="11" fill="#A9DD4B" stroke="#86BC24" stroke-width="4"/>
<circle cx="261" cy="278" r="11" fill="#A9DD4B" stroke="#86BC24" stroke-width="4"/>
</g>
<defs>
<clipPath id="clip0_51_980">
<rect width="522" height="511" fill="white"/>
</clipPath>
</defs>
</svg>
