<svg width="85" height="85" viewBox="0 0 85 85" fill="none" xmlns="http://www.w3.org/2000/svg">
<path d="M42.8935 0.787048C19.7546 0.787048 1.02313 19.5185 1.02313 42.6574C1.02313 65.7963 19.7546 84.5278 42.8935 84.5278C66.0324 84.5278 84.7639 65.7963 84.7639 42.6574V0.787048H42.8935Z" fill="#86BC24"/>
<path d="M17.7083 49.2685C13.3796 49.2685 9.83795 45.7268 9.83795 41.3981C9.83795 37.0694 13.3796 33.5278 17.7083 33.5278C22.037 33.5278 25.5787 37.0694 25.5787 41.3981C25.5787 45.7268 22.1157 49.2685 17.7083 49.2685ZM26.838 33.0556C26.287 33.0556 25.8148 33.5278 25.8148 34.0787V35.8102C23.9259 33.1343 20.9352 31.5602 17.7083 31.5602C12.2778 31.5602 7.87036 35.9676 7.87036 41.3981C7.87036 46.8287 12.2778 51.2361 17.7083 51.2361C20.9352 51.2361 24.0046 49.662 25.8148 46.9861V50.2917C25.8148 50.8426 26.287 51.3148 26.838 51.3148C27.3889 51.3148 27.8611 50.8426 27.8611 50.2917V34.0787C27.8611 33.5278 27.3889 33.0556 26.838 33.0556Z" fill="white"/>
<path d="M65.3241 49.2685C60.9954 49.2685 57.4537 45.7268 57.4537 41.3981C57.4537 37.0694 60.9954 33.5278 65.3241 33.5278C69.6528 33.5278 73.1944 37.0694 73.1944 41.3981C73.1157 45.7268 69.6528 49.2685 65.3241 49.2685ZM74.375 33.0556C73.8241 33.0556 73.3519 33.5278 73.3519 34.0787V35.8102C71.5417 33.1343 68.4722 31.5602 65.2454 31.5602C59.8148 31.5602 55.4074 35.9676 55.4074 41.3981C55.4074 46.8287 59.8935 51.2361 65.3241 51.2361C68.5509 51.2361 71.6204 49.662 73.4306 46.9861V50.2917C73.4306 50.8426 73.9028 51.3148 74.4537 51.3148C75.0046 51.3148 75.4769 50.8426 75.4769 50.2917V34.0787C75.3982 33.5278 74.9259 33.0556 74.375 33.0556Z" fill="white"/>
<path d="M44.5463 49.2685C40.2176 49.2685 36.6759 45.7268 36.6759 41.3981C36.6759 37.0694 40.2176 33.5278 44.5463 33.5278C48.875 33.5278 52.4166 37.0694 52.4166 41.3981C52.4166 45.7268 48.875 49.2685 44.5463 49.2685ZM44.5463 31.5602C41.3194 31.5602 38.25 33.1343 36.4398 35.8102V34.0787C36.4398 33.5278 35.9676 33.0556 35.4166 33.0556C34.8657 33.0556 34.3935 33.5278 34.3935 34.0787V63.2778C34.3935 63.8287 34.8657 64.3009 35.4166 64.3009C35.9676 64.3009 36.4398 63.8287 36.4398 63.2778V46.9861C38.3287 49.662 41.3194 51.2361 44.5463 51.2361C49.9768 51.2361 54.3842 46.8287 54.3842 41.3981C54.3842 35.9676 49.9768 31.5602 44.5463 31.5602Z" fill="white"/>
<path d="M39.8241 30.0648C39.8241 29.5139 39.3519 29.0417 38.801 29.0417H32.1111V26.9167C32.1111 23.2176 34.0787 23.0602 34.3148 23.0602H38.801C39.3519 23.0602 39.8241 22.588 39.8241 22.0371C39.8241 21.4861 39.4306 21.0926 38.9584 21.0139H34.3935C34.2361 21.0139 30.2223 21.0926 30.2223 26.838V28.963H28.5695C28.0185 28.963 27.5463 29.4352 27.5463 29.9861C27.5463 30.5371 28.0185 31.0093 28.5695 31.0093H30.2223V50.213C30.2223 50.7639 30.6945 51.2361 31.2454 51.2361C31.7963 51.2361 32.2685 50.7639 32.2685 50.213V31.088H38.9584C39.3519 31.088 39.8241 30.6158 39.8241 30.0648Z" fill="white"/>
</svg>
