<svg width="66" height="66" viewBox="0 0 66 66" fill="none" xmlns="http://www.w3.org/2000/svg">
<g clip-path="url(#clip0_61_625)">
<mask id="mask0_61_625" style="mask-type:luminance" maskUnits="userSpaceOnUse" x="-37" y="-30" width="218" height="154">
<path d="M-36.6605 123.61H180.641V-29.9726H-36.6605V123.61Z" fill="white"/>
</mask>
<g mask="url(#mask0_61_625)">
<path d="M41.132 -5.72205e-05C38.4113 -5.72205e-05 35.9218 1.10394 34.132 2.93447C34.8062 3.53974 35.578 4.22087 36.2767 4.8135C37.5381 3.57999 39.2561 2.83901 41.132 2.83901C44.9673 2.83901 48.0879 5.95775 48.0879 9.79193C48.0879 11.6754 47.3811 13.3774 46.0454 14.7133L32.9863 27.7889L22.1848 16.9742C21.1805 17.3176 20.1481 17.5978 18.9868 17.7895L31.9817 30.8001C32.2481 31.0669 32.6982 31.3948 32.9863 31.3948C33.2867 31.3948 33.7247 31.0669 33.9908 30.8001L48.053 16.7198C49.9326 14.8403 50.9263 12.4445 50.9263 9.79193C50.9263 4.39296 46.5327 -5.72205e-05 41.132 -5.72205e-05Z" fill="#7DA635"/>
<path d="M55.1192 15.7147C53.7956 15.4915 52.5415 15.2234 51.3317 14.9125C50.6193 16.1017 50.2234 16.6179 49.5298 17.368C50.5163 17.6518 51.5266 17.9056 52.5717 18.1249C52.4292 18.3476 52.2888 18.5684 52.1497 18.7867C47.4409 26.1767 44.2853 31.1316 48.9664 40.6047C48.0041 41.6837 46.5455 42.732 44.6853 43.6822C42.0134 42.6301 39.6039 42.0978 37.5158 42.0978C33.3831 42.0978 31.1151 44.1703 30.2109 46.4428C23.2009 45.8079 18.8618 42.2505 17.2814 40.702C20.4708 35.5179 21.2862 30.6734 19.7045 26.2912C18.0079 21.5876 13.8123 19.0042 11.31 17.8932C11.2699 17.4851 11.2132 16.6406 11.1458 16.1703C12.4921 16.4113 13.832 16.5336 15.1478 16.5336H15.1494C21.1407 16.5336 26.9482 13.9667 32.0895 9.08347C31.4561 8.59378 30.7458 7.97458 29.9466 7.20805C25.368 11.5123 20.4019 13.6945 15.1494 13.6958H15.1478C13.3919 13.6958 11.5807 13.4453 9.76516 12.9509C9.29049 12.8235 8.5048 12.6292 8.13751 12.9736C7.78157 13.3065 7.90392 14.1166 8.00071 14.5988C8.28308 16.0121 8.51022 18.2245 8.53164 18.8922C8.5621 19.868 8.64263 19.9369 9.54292 20.2516C10.6009 20.6227 15.3241 22.5149 17.0344 27.2533C18.3897 31.0104 17.4677 35.3216 14.3102 40.0781C13.7865 40.8674 13.81 41.0082 14.3797 41.7464C14.6068 42.0392 20.1516 48.8314 31.1861 49.3534C32.5001 49.4145 32.4297 49.2819 32.6434 48.199C33.053 46.1288 34.8128 44.9371 37.5158 44.9371C39.3835 44.9371 41.6231 45.4967 44.1978 46.5465C44.7455 46.7702 44.8232 46.7702 45.3572 46.5164C48.3572 45.0891 50.5266 43.4219 51.8079 41.5849C52.2697 40.9228 52.2612 40.7905 51.9008 40.1088C47.3699 31.5558 49.7776 27.7926 54.5452 20.311C55.0405 19.5329 55.556 18.7194 56.0915 17.8654C56.6767 16.9314 56.7704 15.9925 55.1192 15.7147Z" fill="#0050A3"/>
<path d="M18.1985 11.8617C17.993 11.1995 17.8844 10.5046 17.8844 9.79204C17.8844 5.95786 21.0044 2.83912 24.8392 2.83912C26.4242 2.83912 27.8957 3.36287 29.0774 4.27568C31.4969 6.23496 32.5355 7.42151 34.4161 9.01933C37.3839 11.5421 40.4818 13.5855 43.5592 15.0847C44.0995 14.5156 44.8209 13.7287 45.5663 12.8932C42.2999 11.4056 38.7566 9.00255 35.8634 6.52289C34.2734 5.15857 32.2981 3.34997 31.6915 2.79113C31.691 2.79036 31.6905 2.79036 31.6905 2.78984C29.9126 1.04729 27.4866 5.72205e-05 24.8392 5.72205e-05C19.439 5.72205e-05 15.0457 4.39307 15.0457 9.79204C15.0457 10.5872 15.1409 11.3669 15.3242 12.1203C16.2552 12.1241 17.2618 12.0333 18.1985 11.8617Z" fill="#0050A3"/>
<path d="M4.1463 56.8718H2.83406C2.1289 55.6313 1.80213 55.2461 1.52157 55.2461H1.05129V56.8718H0V52.3217H2.54008C3.47392 52.3217 3.78701 52.9027 3.78701 53.6535C3.78701 54.306 3.51316 54.8739 2.65106 54.92C2.95822 55.0307 3.29763 55.4422 4.1463 56.8718ZM1.05129 54.3847H2.22027C2.4487 54.3847 2.6188 54.2214 2.6188 53.8166C2.6188 53.405 2.46832 53.2162 2.23318 53.2162H1.05129V54.3847Z" fill="#7DA635"/>
<path d="M7.32535 56.7807C6.99264 56.8914 6.49655 56.9629 6.11765 56.9629C5.17735 56.9629 4.47864 56.5519 4.47864 55.1811C4.47864 53.8362 5.09243 53.4381 6.05209 53.4381C7.16248 53.4381 7.64567 53.7771 7.55404 55.4946H5.51031C5.52347 56.03 5.76481 56.1275 6.24773 56.1275C6.48984 56.1275 6.9276 56.0818 7.17539 56.0165L7.32535 56.7807ZM5.45817 53.1635L6.26116 52.3217H7.28638L6.30684 53.1635H5.45817ZM5.51676 54.757H6.67904C6.66613 54.2931 6.51591 54.1948 6.1241 54.1948C5.70622 54.1948 5.57561 54.3323 5.51676 54.757Z" fill="#7DA635"/>
<path d="M9.45368 56.9435C8.59184 56.9435 8.1084 56.5782 8.1084 55.2268C8.1084 53.8622 8.61765 53.438 9.75386 53.438C10.2763 53.438 10.9032 53.5358 11.2687 53.6728V56.6043C11.2687 57.9425 10.4786 58.2036 9.42115 58.2036C8.98985 58.2036 8.50666 58.1185 8.19977 58.0078L8.37606 57.2242C8.72219 57.3158 9.05515 57.3744 9.40128 57.3744C9.94357 57.3744 10.2634 57.2374 10.2634 56.7544C10.0675 56.8522 9.78019 56.9435 9.45368 56.9435ZM10.2634 54.3258C10.1064 54.2603 9.90408 54.2345 9.75386 54.2345C9.27713 54.2345 9.12071 54.3521 9.12071 55.2072C9.12071 55.912 9.25777 56.1014 9.72779 56.1014C10.0218 56.1014 10.2634 56.0103 10.2634 55.8664V54.3258Z" fill="#7DA635"/>
<path d="M13.2008 52.5565C13.2008 53.0072 13.057 53.0854 12.6329 53.0854C12.2019 53.0854 12.0648 53.0072 12.0648 52.5565C12.0648 52.1457 12.2019 52.0802 12.6329 52.0802C13.057 52.0802 13.2008 52.1457 13.2008 52.5565ZM13.1355 56.8718H12.1301V53.5294H13.1355V56.8718Z" fill="#7DA635"/>
<path d="M13.8535 55.1811C13.8535 53.8168 14.4087 53.4381 15.4726 53.4381C16.557 53.4381 17.1055 53.8168 17.1055 55.1811C17.1055 56.5519 16.5634 56.9629 15.4726 56.9629C14.3955 56.9629 13.8535 56.5519 13.8535 55.1811ZM14.8658 55.2005C14.8658 56.0429 15.0026 56.1799 15.4726 56.1799C15.9496 56.1799 16.087 56.0429 16.087 55.2005C16.087 54.3258 15.9496 54.2214 15.4726 54.2214C15.0026 54.2214 14.8658 54.3258 14.8658 55.2005Z" fill="#7DA635"/>
<path d="M18.8414 56.8718H17.8358V53.7384C18.2671 53.5818 18.933 53.4381 19.5337 53.4381C20.4546 53.4381 20.9117 53.823 20.9117 55.0245V56.8718H19.9059V55.1024C19.9059 54.4959 19.808 54.3323 19.3182 54.3323C19.155 54.3323 19.0048 54.3522 18.8414 54.3909V56.8718Z" fill="#7DA635"/>
</g>
<path d="M1.40746 65.8716H0.0229492V59.8877H1.40746V62.0681H3.66052V59.8877H5.04477V65.8716H3.66052V63.3473H1.40746V65.8716Z" fill="#0050A3"/>
<mask id="mask1_61_625" style="mask-type:luminance" maskUnits="userSpaceOnUse" x="-37" y="-30" width="218" height="154">
<path d="M-36.6605 123.61H180.641V-29.9726H-36.6605V123.61Z" fill="white"/>
</mask>
<g mask="url(#mask1_61_625)">
<path d="M10.1181 65.6478C9.52495 65.8622 8.6737 65.9915 8.02868 65.9915C6.57577 65.9915 6.14575 65.6821 6.14575 64.5319C6.14575 63.2958 6.81633 63.0982 7.86529 63.0982C8.1918 63.0982 8.52735 63.1408 8.86289 63.2099C8.86289 62.6 8.72532 62.4287 7.86529 62.4287C7.35784 62.4287 6.86821 62.5229 6.49833 62.6346L6.2921 61.5866C6.79929 61.4583 7.53 61.3551 8.18354 61.3551C9.49914 61.3551 10.1181 61.7584 10.1181 63.0636V65.6478ZM8.13218 65.0123C8.38126 65.0123 8.65666 64.9695 8.86289 64.8926V64.0598C8.66518 64.0079 8.41584 63.9994 8.14921 63.9994C7.6761 63.9994 7.50393 64.051 7.50393 64.4888C7.50393 64.9354 7.61596 65.0123 8.13218 65.0123Z" fill="#0050A3"/>
<path d="M13.9016 61.4757H15.2086V65.6053C14.6496 65.8026 13.7642 66 12.9819 66C11.761 66 11.1759 65.4848 11.1759 63.9138V61.4757H12.4832V63.8108C12.4832 64.6003 12.6208 64.8238 13.2656 64.8238C13.4803 64.8238 13.6698 64.7895 13.9016 64.7378V61.4757Z" fill="#0050A3"/>
<path d="M17.8831 62.609V64.2489C17.8831 64.6955 18.0122 64.875 18.4765 64.875C18.7514 64.875 18.9754 64.824 19.1817 64.7553L19.3964 65.7685C19.0697 65.9055 18.5452 65.9919 18.0723 65.9919C17.1008 65.9919 16.5593 65.7001 16.5593 64.3864V62.609H15.8456V61.4759H16.5593V60.8234L17.8831 60.2914V61.4759H19.2588V62.609H17.8831Z" fill="#0050A3"/>
<path d="M22.965 62.5742C22.6212 62.4805 22.1137 62.3856 21.6667 62.3856C21.2537 62.3856 21.0477 62.4199 21.0477 62.7633C21.0477 62.9953 21.168 63.0554 21.8471 63.141C22.87 63.2703 23.3258 63.5789 23.3258 64.4801C23.3258 65.6738 22.4663 65.9917 21.3572 65.9917C20.8841 65.9917 20.1962 65.897 19.792 65.751L20.0499 64.7551C20.3769 64.8493 20.8671 64.9357 21.2968 64.9357C21.8128 64.9357 22.0533 64.8929 22.0533 64.5487C22.0533 64.309 21.907 64.2143 21.1765 64.1454C20.2566 64.0598 19.7665 63.7938 19.7665 62.8577C19.7665 61.665 20.6175 61.3551 21.7183 61.3551C22.1912 61.3551 22.8101 61.4498 23.2231 61.5964L22.965 62.5742Z" fill="#0050A3"/>
</g>
<path d="M23.8424 62.7982H26.1035V64.0598H23.8424V62.7982Z" fill="#0050A3"/>
<mask id="mask2_61_625" style="mask-type:luminance" maskUnits="userSpaceOnUse" x="-37" y="-30" width="218" height="154">
<path d="M-36.6605 123.61H180.641V-29.9726H-36.6605V123.61Z" fill="white"/>
</mask>
<g mask="url(#mask2_61_625)">
<path d="M30.8931 65.6821C30.4114 65.8622 29.5863 65.9915 28.8979 65.9915C27.4021 65.9915 26.7318 65.4589 26.7318 63.6558C26.7318 61.8879 27.5056 61.3551 28.5972 61.3551C29.0272 61.3551 29.3199 61.4413 29.569 61.5445V59.6727H30.8931V65.6821ZM29.569 62.7633C29.569 62.5739 29.268 62.4287 28.8811 62.4287C28.2622 62.4287 28.0644 62.7035 28.0644 63.6387C28.0644 64.7035 28.2707 64.8838 28.8979 64.8838C29.1219 64.8838 29.4058 64.8493 29.569 64.7806V62.7633Z" fill="#0050A3"/>
<path d="M35.6052 65.751C35.167 65.8973 34.5134 65.9919 34.015 65.9919C32.7766 65.9919 31.8567 65.4507 31.8567 63.6477C31.8567 61.8791 32.6646 61.3554 33.9288 61.3554C35.3902 61.3554 36.027 61.8022 35.9065 64.06H33.2151C33.2324 64.7638 33.5504 64.8929 34.1867 64.8929C34.5052 64.8929 35.0808 64.8322 35.4078 64.7463L35.6052 65.751ZM33.2236 63.0899H34.754C34.737 62.4805 34.5395 62.3513 34.023 62.3513C33.473 62.3513 33.3011 62.5319 33.2236 63.0899Z" fill="#0050A3"/>
</g>
<path d="M36.4746 62.7982H38.7359V64.0598H36.4746V62.7982Z" fill="#0050A3"/>
<path d="M44.0411 59.8877V61.0983H41.0576V62.4892H43.267V63.6737H41.0576V65.8716H39.6733V59.8877H44.0411Z" fill="#0050A3"/>
<mask id="mask3_61_625" style="mask-type:luminance" maskUnits="userSpaceOnUse" x="-37" y="-30" width="218" height="154">
<path d="M-36.6605 123.61H180.641V-29.9726H-36.6605V123.61Z" fill="white"/>
</mask>
<g mask="url(#mask3_61_625)">
<path d="M44.6088 61.4757H45.9331V61.8194C46.0792 61.5611 46.3629 61.3552 46.9994 61.3552C47.1284 61.3552 47.2833 61.364 47.4379 61.381V62.6089C47.2655 62.5573 47.0337 62.5405 46.819 62.5405C46.3459 62.5405 45.9331 62.6948 45.9331 62.9866V65.8716H44.6088V61.4757Z" fill="#0050A3"/>
<path d="M51.8232 65.648C51.2298 65.8624 50.3785 65.9917 49.7337 65.9917C48.2806 65.9917 47.8511 65.6824 47.8511 64.5322C47.8511 63.2961 48.5214 63.0985 49.5706 63.0985C49.8969 63.0985 50.2327 63.141 50.568 63.2102C50.568 62.6003 50.4304 62.4289 49.5706 62.4289C49.0634 62.4289 48.573 62.5231 48.2031 62.6348L47.9969 61.5868C48.5044 61.4586 49.2353 61.3554 49.8886 61.3554C51.2039 61.3554 51.8232 61.7586 51.8232 63.0639V65.648ZM49.837 65.0126C50.0863 65.0126 50.3615 64.9697 50.568 64.8929V64.06C50.3702 64.0082 50.1206 63.9997 49.8543 63.9997C49.3814 63.9997 49.209 64.0513 49.209 64.4891C49.209 64.9357 49.3213 65.0126 49.837 65.0126Z" fill="#0050A3"/>
<path d="M54.2399 65.8716H52.9158V61.7502C53.4831 61.5446 54.3602 61.3552 55.1513 61.3552C56.3636 61.3552 56.9653 61.8622 56.9653 63.4415V65.8716H55.6414V63.5447C55.6414 62.7461 55.5124 62.5317 54.8676 62.5317C54.6523 62.5317 54.4546 62.5573 54.2399 62.6089V65.8716Z" fill="#0050A3"/>
<path d="M61.4539 65.7685C61.1018 65.9143 60.5082 65.9919 60.0694 65.9919C58.7543 65.9919 57.8767 65.4507 57.8767 63.6477C57.8767 61.8623 58.7625 61.3554 60.0694 61.3554C60.5252 61.3554 61.1101 61.4245 61.4539 61.5447L61.1787 62.6604C60.9297 62.5659 60.5427 62.4805 60.1814 62.4805C59.5371 62.4805 59.2099 62.5917 59.2099 63.6738C59.2099 64.7037 59.5371 64.858 60.1814 64.858C60.5598 64.858 60.9297 64.7638 61.1787 64.6609L61.4539 65.7685Z" fill="#0050A3"/>
<path d="M65.6845 65.751C65.2464 65.8973 64.5924 65.9919 64.094 65.9919C62.8558 65.9919 61.9362 65.4507 61.9362 63.6477C61.9362 61.8791 62.7443 61.3554 64.008 61.3554C65.4694 61.3554 66.1059 61.8022 65.9857 64.06H63.2943C63.3116 64.7638 63.6299 64.8929 64.2656 64.8929C64.5844 64.8929 65.1602 64.8322 65.487 64.7463L65.6845 65.751ZM63.3031 63.0899H64.8337C64.8162 62.4805 64.6182 62.3513 64.1027 62.3513C63.5525 62.3513 63.3803 62.5319 63.3031 63.0899Z" fill="#0050A3"/>
</g>
</g>
<defs>
<clipPath id="clip0_61_625">
<rect width="66" height="66" fill="white"/>
</clipPath>
</defs>
</svg>
